HIERARCHY
ROOT Hips
{
	OFFSET 0.000000 0.000000 0.000000
	CHANNELS 6 Xposition Yposition Zposition Zrotation Yrotation Xrotation 
	JOINT LHipJoint
	{
		OFFSET 0.000000 0.000000 0.000000
		CHANNELS 3 Zrotation Yrotation Xrotation
		JOINT LeftUpLeg
		{
			OFFSET 1.363060 -1.794630 0.839290
			CHANNELS 3 Zrotation Yrotation Xrotation
			JOINT LeftLeg
			{
				OFFSET 2.448110 -6.726130 0.000000
				CHANNELS 3 Zrotation Yrotation Xrotation
				JOINT LeftFoot
				{
					OFFSET 2.562200 -7.039590 0.000000
					CHANNELS 3 Zrotation Yrotation Xrotation
					JOINT LeftToeBase
					{
						OFFSET 0.157640 -0.433110 2.322550
						CHANNELS 3 Zrotation Yrotation Xrotation
						End Site
						{
							OFFSET 0.000000 0.000000 0.000000
						}
					}
				}
			}
		}
	}
	JOINT RHipJoint
	{
		OFFSET 0.000000 0.000000 0.000000
		CHANNELS 3 Zrotation Yrotation Xrotation
		JOINT RightUpLeg
		{
			OFFSET -1.305520 -1.794630 0.839290
			CHANNELS 3 Zrotation Yrotation Xrotation
			JOINT RightLeg
			{
				OFFSET -2.542530 -6.985550 0.000000
				CHANNELS 3 Zrotation Yrotation Xrotation
				JOINT RightFoot
				{
					OFFSET -2.568260 -7.056230 0.000000
					CHANNELS 3 Zrotation Yrotation Xrotation
					JOINT RightToeBase
					{
						OFFSET -0.164730 -0.452590 2.363150
						CHANNELS 3 Zrotation Yrotation Xrotation
						End Site
						{
							OFFSET 0.000000 0.000000 0.000000
						}
					}
				}
			}
		}
	}
	JOINT LowerBack
	{
		OFFSET 0.000000 0.000000 0.000000
		CHANNELS 3 Zrotation Yrotation Xrotation
		JOINT Spine
		{
			OFFSET 0.028270 2.035590 -0.193380
			CHANNELS 3 Zrotation Yrotation Xrotation
			JOINT Spine1
			{
				OFFSET 0.056720 2.048850 -0.042750
				CHANNELS 3 Zrotation Yrotation Xrotation
				JOINT Neck
				{
					OFFSET 0.000000 0.000000 0.000000
					CHANNELS 3 Zrotation Yrotation Xrotation
					JOINT Neck1
					{
						OFFSET -0.054170 1.746240 0.172020
						CHANNELS 3 Zrotation Yrotation Xrotation
						JOINT Head
						{
							OFFSET 0.104070 1.761360 -0.123970
							CHANNELS 3 Zrotation Yrotation Xrotation
							End Site
							{
								OFFSET 0.000000 0.000000 0.000000
							}
						}
					}
				}
				JOINT LeftShoulder
				{
					OFFSET 0.000000 0.000000 0.000000
					CHANNELS 3 Zrotation Yrotation Xrotation
					JOINT LeftArm
					{
						OFFSET 3.362410 1.200890 -0.311210
						CHANNELS 3 Zrotation Yrotation Xrotation
						JOINT LeftForeArm
						{
							OFFSET 4.983000 -0.000000 -0.000000
							CHANNELS 3 Zrotation Yrotation Xrotation
							JOINT LeftHand
							{
								OFFSET 3.483560 -0.000000 -0.000000
								CHANNELS 3 Zrotation Yrotation Xrotation
								JOINT LeftFingerBase
								{
									OFFSET 0.000000 0.000000 0.000000
									CHANNELS 3 Zrotation Yrotation Xrotation
									JOINT LeftHandIndex1
									{
										OFFSET 0.715260 -0.000000 -0.000000
										CHANNELS 3 Zrotation Yrotation Xrotation
										End Site
										{
											OFFSET 0.000000 0.000000 0.000000
										}
									}
								}
								JOINT LThumb
								{
									OFFSET 0.000000 0.000000 0.000000
									CHANNELS 3 Zrotation Yrotation Xrotation
									End Site
									{
										OFFSET 0.000000 0.000000 0.000000
									}
								}
							}
						}
					}
				}
				JOINT RightShoulder
				{
					OFFSET 0.000000 0.000000 0.000000
					CHANNELS 3 Zrotation Yrotation Xrotation
					JOINT RightArm
					{
						OFFSET -3.136600 1.374050 -0.404650
						CHANNELS 3 Zrotation Yrotation Xrotation
						JOINT RightForeArm
						{
							OFFSET -5.241900 -0.000000 -0.000000
							CHANNELS 3 Zrotation Yrotation Xrotation
							JOINT RightHand
							{
								OFFSET -3.444170 -0.000000 -0.000000
								CHANNELS 3 Zrotation Yrotation Xrotation
								JOINT RightFingerBase
								{
									OFFSET 0.000000 0.000000 0.000000
									CHANNELS 3 Zrotation Yrotation Xrotation
									JOINT RightHandIndex1
									{
										OFFSET -0.622530 -0.000000 -0.000000
										CHANNELS 3 Zrotation Yrotation Xrotation
										End Site
										{
											OFFSET 0.000000 0.000000 0.000000
										}
									}
								}
								JOINT RThumb
								{
									OFFSET 0.000000 0.000000 0.000000
									CHANNELS 3 Zrotation Yrotation Xrotation
									End Site
									{
										OFFSET 0.000000 0.000000 0.000000
									}
								}
							}
						}
					}
				}
			}
		}
	}
}
MOTION
Frames: 4
Frame Time: 0.033333
-1.922367 17.254588 23.548653 1.196384 4.982459 9.570309 -5.776242 7.095505 -4.165428 -16.674834 -2.458493 -5.681947 -10.685211 -10.284710 -26.554114 0.293967 9.859908 21.365836 0.000000 0.000000 0.000000 12.168307 -4.436710 -2.938586 6.563026 0.734766 -6.739637 -12.686721 -25.593915 50.189793 18.454333 -48.149006 21.167733 0.000000 0.000000 0.000000 -4.038538 0.069974 14.513076 3.215407 -0.188140 -4.499672 -0.652933 0.323530 -5.383160 0.560365 0.187831 -2.026053 3.869870 -0.148996 5.285865 0.000000 0.000000 0.000000 6.766919 9.196608 8.727602 -71.013685 -6.616251 19.792635 -8.984765 -82.829675 0.431655 2.800520 -14.283029 0.209687 2.853947 -14.277267 0.000000 0.000000 0.000000 0.000000 0.000000 0.000000 0.000000 -7.976838 -13.121076 4.429969 73.277222 3.415277 20.900283 -176.342275 87.159360 -179.628106 -2.675797 13.196237 0.181467 -2.718313 13.191184 0.000000 0.000000 0.000000 0.000000 0.000000 0.000000 0.000000 
-1.925479 17.287740 23.756365 1.555327 4.868626 9.720273 -5.393067 7.249514 -4.544351 -17.597946 -2.406195 -5.383161 -10.458703 -9.676350 -24.755718 0.134511 8.416127 18.315349 0.000000 0.000000 0.000000 12.214637 -4.913154 -2.270902 6.197071 0.947637 -7.115116 -12.652887 -25.144315 49.835945 18.694718 -49.462505 22.213388 0.000000 0.000000 0.000000 -4.106350 0.256303 14.365230 3.073566 -0.157564 -4.331496 -0.915253 0.392516 -5.569199 0.546733 0.211575 -1.793427 3.894398 -0.160472 5.432212 0.000000 0.000000 0.000000 6.805092 9.061596 8.544396 -70.740157 -6.526021 21.149795 -12.065242 -81.391703 0.467765 2.380200 -14.596109 0.227598 2.431671 -14.593091 0.000000 0.000000 0.000000 0.000000 0.000000 0.000000 0.000000 -8.247248 -13.264923 4.160027 73.803536 3.342465 20.568026 -177.502962 85.969406 -179.632460 -2.860354 13.174890 0.179165 -2.904645 13.168805 0.000000 0.000000 0.000000 0.000000 0.000000 0.000000 0.000000 
-1.926942 17.323460 23.962198 1.915349 4.741334 9.864223 -5.055958 7.459293 -4.911321 -18.500487 -2.395317 -5.182119 -10.213592 -8.999001 -22.797803 0.002551 6.997941 15.284097 0.000000 0.000000 0.000000 12.298895 -5.392285 -1.550475 5.705158 1.094839 -7.500914 -12.494463 -24.724786 49.360073 18.852306 -50.589620 23.152478 0.000000 0.000000 0.000000 -4.181010 0.427402 14.160530 2.962812 -0.138963 -4.186504 -1.142428 0.450649 -5.735679 0.554470 0.231255 -1.596013 3.884526 -0.166576 5.510266 0.000000 0.000000 0.000000 6.782658 8.944901 8.363995 -70.451328 -6.418318 22.519876 -16.084260 -79.404300 0.512019 1.811065 -14.906557 0.249712 1.858293 -14.907124 0.000000 0.000000 0.000000 0.000000 0.000000 0.000000 0.000000 -8.445242 -13.404036 3.980222 74.179684 3.243650 20.275448 -178.321909 85.124749 -179.636810 -2.991648 13.139932 0.176915 -3.037165 13.133086 0.000000 0.000000 0.000000 0.000000 0.000000 0.000000 0.000000 
-1.925549 17.361228 24.165434 2.270070 4.600522 10.002738 -4.771554 7.729628 -5.257494 -19.368493 -2.432763 -5.089637 -9.959032 -8.255840 -20.686148 -0.105913 5.617602 12.306319 0.000000 0.000000 0.000000 12.415725 -5.875496 -0.782908 5.103342 1.189131 -7.897066 -12.227514 -24.335591 48.773273 18.920184 -51.537886 24.022258 0.000000 0.000000 0.000000 -4.258362 0.571268 13.894356 2.880943 -0.130572 -4.046634 -1.367156 0.497033 -5.922496 0.612495 0.239200 -1.418903 3.845713 -0.168171 5.532323 0.000000 0.000000 0.000000 6.606672 8.895277 8.258801 -70.196726 -6.340454 23.392993 -19.407115 -77.577246 0.551560 1.299293 -15.020169 0.269735 1.340356 -15.023799 0.000000 0.000000 0.000000 0.000000 0.000000 0.000000 0.000000 -8.536016 -13.523425 3.892687 74.399819 3.085978 20.057146 -178.820918 84.600283 -179.640403 -3.073143 13.108847 0.175075 -3.119486 13.101509 0.000000 0.000000 0.000000 0.000000 0.000000 0.000000 0.000000 
